<svg width="32" height="33" viewBox="0 0 32 33" fill="none" xmlns="http://www.w3.org/2000/svg">
<path d="M11.2 4.5H6.13333C5.3866 4.5 5.01323 4.5 4.72801 4.64532C4.47713 4.77316 4.27316 4.97713 4.14532 5.22801C4 5.51323 4 5.8866 4 6.63333V11.7C4 12.4467 4 12.8201 4.14532 13.1053C4.27316 13.3562 4.47713 13.5602 4.72801 13.688C5.01323 13.8333 5.3866 13.8333 6.13333 13.8333H11.2C11.9467 13.8333 12.3201 13.8333 12.6053 13.688C12.8562 13.5602 13.0602 13.3562 13.188 13.1053C13.3333 12.8201 13.3333 12.4467 13.3333 11.7V6.63333C13.3333 5.8866 13.3333 5.51323 13.188 5.22801C13.0602 4.97713 12.8562 4.77316 12.6053 4.64532C12.3201 4.5 11.9467 4.5 11.2 4.5Z" stroke="#7C7A7A" stroke-width="2" stroke-linecap="round" stroke-linejoin="round"/>
<path d="M25.8667 4.5H20.8C20.0533 4.5 19.6799 4.5 19.3947 4.64532C19.1438 4.77316 18.9398 4.97713 18.812 5.22801C18.6667 5.51323 18.6667 5.8866 18.6667 6.63333V11.7C18.6667 12.4467 18.6667 12.8201 18.812 13.1053C18.9398 13.3562 19.1438 13.5602 19.3947 13.688C19.6799 13.8333 20.0533 13.8333 20.8 13.8333H25.8667C26.6134 13.8333 26.9868 13.8333 27.272 13.688C27.5229 13.5602 27.7268 13.3562 27.8547 13.1053C28 12.8201 28 12.4467 28 11.7V6.63333C28 5.8866 28 5.51323 27.8547 5.22801C27.7268 4.97713 27.5229 4.77316 27.272 4.64532C26.9868 4.5 26.6134 4.5 25.8667 4.5Z" stroke="#7C7A7A" stroke-width="2" stroke-linecap="round" stroke-linejoin="round"/>
<path d="M25.8667 19.1667H20.8C20.0533 19.1667 19.6799 19.1667 19.3947 19.312C19.1438 19.4398 18.9398 19.6438 18.812 19.8947C18.6667 20.1799 18.6667 20.5533 18.6667 21.3V26.3667C18.6667 27.1134 18.6667 27.4868 18.812 27.772C18.9398 28.0229 19.1438 28.2268 19.3947 28.3547C19.6799 28.5 20.0533 28.5 20.8 28.5H25.8667C26.6134 28.5 26.9868 28.5 27.272 28.3547C27.5229 28.2268 27.7268 28.0229 27.8547 27.772C28 27.4868 28 27.1134 28 26.3667V21.3C28 20.5533 28 20.1799 27.8547 19.8947C27.7268 19.6438 27.5229 19.4398 27.272 19.312C26.9868 19.1667 26.6134 19.1667 25.8667 19.1667Z" stroke="#7C7A7A" stroke-width="2" stroke-linecap="round" stroke-linejoin="round"/>
<path d="M11.2 19.1667H6.13333C5.3866 19.1667 5.01323 19.1667 4.72801 19.312C4.47713 19.4398 4.27316 19.6438 4.14532 19.8947C4 20.1799 4 20.5533 4 21.3V26.3667C4 27.1134 4 27.4868 4.14532 27.772C4.27316 28.0229 4.47713 28.2268 4.72801 28.3547C5.01323 28.5 5.3866 28.5 6.13333 28.5H11.2C11.9467 28.5 12.3201 28.5 12.6053 28.3547C12.8562 28.2268 13.0602 28.0229 13.188 27.772C13.3333 27.4868 13.3333 27.1134 13.3333 26.3667V21.3C13.3333 20.5533 13.3333 20.1799 13.188 19.8947C13.0602 19.6438 12.8562 19.4398 12.6053 19.312C12.3201 19.1667 11.9467 19.1667 11.2 19.1667Z" stroke="#7C7A7A" stroke-width="2" stroke-linecap="round" stroke-linejoin="round"/>
</svg>
